<?xml version="1.0" encoding="UTF-8" standalone="no"?>
<svg
   version="1.1"
   width="14.022916mm"
   height="14.022916mm"
   viewBox="0 0 28.045832 28.045832"
   id="svg4"
   xmlns="http://www.w3.org/2000/svg"
   xmlns:svg="http://www.w3.org/2000/svg">
  <defs
     id="defs4" />
  <g
     id="g4"
     transform="matrix(0.11400745,0,0,0.11400745,-12.540819,-10.7167)">
    <g
       id="rect"
       style="display:none">
      <path
         d="m 120,340 q 10,0 113,0 103,0 113,0 10,0 10,-10 0,-10 0,-113 0,-103 0,-113 0,-10 -10,-10 -10,0 -113,0 -103,0 -113,0 -10,0 -10,10 0,10 0,113 0,103 0,113 0,10 10,10 z"
         fill-opacity="1"
         fill="#649dff"
         stroke-linejoin="round"
         stroke-linecap="round"
         stroke-opacity="1"
         stroke-width="0"
         stroke="#000000"
         id="path1" />
    </g>
    <g
       id="sun">
      <path
         d="m 230,240 q 0,0 2.5,0 2.5,0 4.9863,-0.26132 2.48631,-0.26132 4.93168,-0.7811 2.44537,-0.51978 4.82301,-1.29232 2.37764,-0.77255 4.6615,-1.78939 2.28387,-1.01684 4.44893,-2.26684 2.16506,-1.25 4.18761,-2.71946 2.02254,-1.46947 3.8804,-3.14229 1.85786,-1.67283 3.53069,-3.53069 1.67283,-1.85786 3.14229,-3.8804 1.46946,-2.02255 2.71946,-4.18761 1.25,-2.16506 2.26684,-4.44893 1.01685,-2.28386 1.78939,-4.6615 0.77254,-2.37764 1.29232,-4.82301 0.51978,-2.44537 0.7811,-4.93168 0.26132,-2.4863 0.26132,-4.9863 0,-2.5 -0.26132,-4.98631 -0.26132,-2.4863 -0.7811,-4.93167 -0.51978,-2.44537 -1.29232,-4.82301 -0.77254,-2.37764 -1.78939,-4.66151 -1.01684,-2.28386 -2.26684,-4.44892 -1.25,-2.16507 -2.71946,-4.18761 -1.46946,-2.02254 -3.14229,-3.8804 -1.67283,-1.85787 -3.53069,-3.53069 -1.85786,-1.67283 -3.8804,-3.14229 -2.02255,-1.46946 -4.18761,-2.71946 -2.16506,-1.25 -4.44893,-2.26685 -2.28386,-1.01684 -4.6615,-1.78938 -2.37764,-0.77254 -4.82301,-1.29232 -2.44537,-0.51978 -4.93168,-0.7811 -2.4863,-0.26132 -4.9863,-0.26132 -2.5,0 -4.9863,0.26132 -2.48631,0.26132 -4.93168,0.7811 -2.44537,0.51978 -4.82301,1.29232 -2.37764,0.77254 -4.6615,1.78938 -2.28387,1.01685 -4.44893,2.26685 -2.16506,1.25 -4.18761,2.71946 -2.02254,1.46946 -3.8804,3.14229 -1.85786,1.67282 -3.53069,3.53069 -1.67283,1.85786 -3.14229,3.8804 -1.46946,2.02254 -2.71946,4.18761 -1.25,2.16506 -2.26684,4.44892 -1.01685,2.28387 -1.78939,4.66151 -0.77254,2.37764 -1.29232,4.82301 -0.51978,2.44537 -0.7811,4.93167 -0.26132,2.48631 -0.26132,4.98631 0,2.5 0.26132,4.9863 0.26132,2.48631 0.7811,4.93168 0.51978,2.44537 1.29232,4.82301 0.77254,2.37764 1.78939,4.6615 1.01684,2.28387 2.26684,4.44893 1.25,2.16506 2.71946,4.18761 1.46946,2.02254 3.14229,3.8804 1.67283,1.85786 3.53069,3.53069 1.85786,1.67282 3.8804,3.14229 2.02255,1.46946 4.18761,2.71946 2.16506,1.25 4.44893,2.26684 2.28386,1.01684 4.6615,1.78939 2.37764,0.77254 4.82301,1.29232 2.44537,0.51978 2.44537,0.51978"
         fill-opacity="1"
         fill="#ff0000"
         stroke-linejoin="round"
         stroke-linecap="round"
         stroke-opacity="1"
         stroke-width="8"
         stroke="#ff6464"
         id="path2" />
    </g>
    <g
       id="cloud">
      <path
         d="m 219.24084,271.8692 q 20.24083,-0.13079 32.801,-13.80309 12.56017,-13.67229 1.37931,-27.38375 -11.18086,-13.71146 -26.10309,-6.8054 -14.92222,6.90606 -26.43448,0.5 -11.51227,-6.40607 -24.86381,-7.53504 -13.35153,-1.12898 -21.4001,10.78438 -8.04857,11.91335 -1.1315,23.6516 6.91708,11.73825 26.21446,16.23017 Q 199,272 219.24084,271.8692 Z"
         fill-opacity="0.8"
         fill="#ffffff"
         stroke-linejoin="round"
         stroke-linecap="round"
         stroke-opacity="0.25"
         stroke-width="2"
         stroke="#808080"
         id="path3" />
    </g>
    <g
       id="mountain">
      <path
         d="m 120,310 56.56854,-56.56854 28.28427,28.28427 56.56855,-56.56854 L 346.27417,310 Z"
         fill-opacity="1"
         fill="#98ff9b"
         stroke-linejoin="round"
         stroke-linecap="round"
         stroke-opacity="1"
         stroke-width="4"
         stroke="#25ef22"
         id="path4" />
    </g>
  </g>
</svg>
